<svg xmlns="http://www.w3.org/2000/svg" width="172" height="36" fill="none" viewBox="0 0 172 36">
    <path fill="#193E58" fill-rule="evenodd" d="M.898 6.526L15.892.102a1.612 1.612 0 0 1 1.13 0l14.994 6.459c.543.244.894.797.898 1.408v19.41c0 .594-.34 1.132-.865 1.374l-14.994 6.87a1.456 1.456 0 0 1-1.197 0L.864 28.753A1.508 1.508 0 0 1 0 27.379V7.935a1.548 1.548 0 0 1 .898-1.409zm23.92 12.9c-.008-.017-.017-.034-.017-.052a2.041 2.041 0 0 0-.166-.446 1.005 1.005 0 0 1-.065-.795.963.963 0 0 1 .53-.58 1.41 1.41 0 0 1 1.663.447l1.662 2.13c.1.16.3.218.466.138l1.596-.688a.424.424 0 0 0 .232-.377v-5.428a.436.436 0 0 0-.19-.336.407.407 0 0 0-.375-.042l-3.358 1.443-5.618 2.404-1.895.825a1.629 1.629 0 0 1-1.962-.515.79.79 0 0 1-.145-.68.762.762 0 0 1 .444-.523l3.192-1.374a.411.411 0 0 0 .245-.282.426.426 0 0 0-.079-.37l-2.925-3.71a.362.362 0 0 0-.466-.138l-4.09 1.752-5.618 2.405-3.058 1.305a1.985 1.985 0 0 0-1.162 1.457 2.043 2.043 0 0 0 .53 1.807 4.104 4.104 0 0 0 4.555.927l3.59-1.546a.411.411 0 0 0 .245-.282.426.426 0 0 0-.079-.37l-1.163-1.478a.959.959 0 0 1-.165-.815.925.925 0 0 1 .53-.627 1.459 1.459 0 0 1 1.696.446l1.363 1.752 1.962 2.508 1.097 1.408c1.348 1.726 3.636 2.328 5.619 1.478 1.562-.722 1.861-2.062 1.396-3.127 0-.017-.009-.034-.017-.051zm-8.228 6.098l.897-.378a.383.383 0 0 0 .242-.264.398.398 0 0 0-.075-.355l-3.192-4.053a.362.362 0 0 0-.465-.138L9.94 22.054c-.151.06-.25.21-.25.378 0 .167.099.317.25.378l6.35 2.714a.448.448 0 0 0 .299 0zm-.3-23.154l-.864.378a.396.396 0 0 0-.214.275.408.408 0 0 0 .081.343l2.394 3.057 3.092 3.95 2.493 3.161c.1.16.3.218.466.138l4.122-1.787a2.049 2.049 0 0 0 1.193-1.532 2.103 2.103 0 0 0-.594-1.869 4.064 4.064 0 0 0-4.422-.824l-1.097.48c-.694.278-1.48.072-1.962-.514a.817.817 0 0 1-.15-.696.79.79 0 0 1 .45-.541l1.462-.618c.151-.061.25-.211.25-.378 0-.168-.099-.318-.25-.378L16.59 2.37a.448.448 0 0 0-.3 0zm-1.263 4.294C13.725 5 11.517 4.427 9.608 5.255 7.713 6.011 7.414 7.832 8.345 9l1.53 1.958c.1.16.298.218.464.137l5.62-2.404a.411.411 0 0 0 .244-.283.426.426 0 0 0-.079-.37l-1.097-1.374zM2.394 8.347a.424.424 0 0 0-.233.378l-.033 5.29c.008.137.079.262.19.336.112.075.25.09.375.042l4.754-2.027a.411.411 0 0 0 .245-.282.426.426 0 0 0-.079-.37l-3.092-3.95a.362.362 0 0 0-.465-.138l-1.662.721zm14.628 24.769l13.465-6.15a.372.372 0 0 0 .232-.378V22.57a.436.436 0 0 0-.19-.336.407.407 0 0 0-.375-.042L16.99 27.825a1.611 1.611 0 0 1-1.13 0L2.692 22.191a.394.394 0 0 0-.38.034.422.422 0 0 0-.185.344v4.02a.424.424 0 0 0 .232.377l13.465 6.15c.382.171.815.171 1.197 0zM56.468 6.707l8.632 5.201c.456.279.734.792.727 1.343V23.62a1.49 1.49 0 0 1-.727 1.308l-8.632 5.201a1.383 1.383 0 0 1-1.455 0l-8.631-5.2a1.49 1.49 0 0 1-.728-1.31V13.218a1.49 1.49 0 0 1 .728-1.309l8.631-5.2a1.383 1.383 0 0 1 1.455 0zm-1.52 13.812a.754.754 0 0 1 .264-1l1.686-1.032a.72.72 0 0 1 .53-.07c.18.054.334.177.43.345l1.917 3.479c.1.197.275.342.482.4a.75.75 0 0 0 .61-.09l.562-.345a.572.572 0 0 0 .297-.516v-6.544a.645.645 0 0 0-.297-.517l-5.424-3.272a.934.934 0 0 0-.297-.069.477.477 0 0 0-.298.069l-5.423 3.272a.572.572 0 0 0-.298.517v6.544c.01.213.122.407.298.516l5.423 3.273a.61.61 0 0 0 .595 0l.563-.345a.804.804 0 0 0 .384-.501.838.838 0 0 0-.087-.636l-1.918-3.478zm18.5-8.602h-4.436v9.19c0 1.97.464 3.456 1.424 4.458.96 1.002 2.25 1.52 3.872 1.52a5.251 5.251 0 0 0 2.383-.553 5.603 5.603 0 0 0 1.82-1.417l.133 1.59h4.17V11.917h-4.302v7.912a3.89 3.89 0 0 1-.166 1.244c-.11.379-.29.73-.53 1.037a2.524 2.524 0 0 1-.86.725c-.373.18-.78.275-1.191.277a2.084 2.084 0 0 1-1.722-.726 3.014 3.014 0 0 1-.595-1.97v-8.499zm27.106 13.106c-.146.085-.342.218-.61.399l-.147.1c-.41.274-.848.508-1.307.698-1.39.58-2.89.874-4.404.864a9.787 9.787 0 0 1-3.372-.565c-1.914-.676-3.432-2.12-4.163-3.957a8.572 8.572 0 0 1-.035-5.954 6.612 6.612 0 0 1 1.48-2.394 7.52 7.52 0 0 1 2.374-1.663 8.038 8.038 0 0 1 3.2-.632 7.588 7.588 0 0 1 3.13.599c.882.39 1.66.97 2.272 1.696a7.614 7.614 0 0 1 1.41 2.594c.326 1.069.489 2.178.482 3.293v.731H90.37a2.787 2.787 0 0 0 1.066 2.029 4.3 4.3 0 0 0 2.822.865 6.936 6.936 0 0 0 2.856-.5 12.1 12.1 0 0 0 1.617-.864l1.823 2.66zm-3.956-7.05a3.145 3.145 0 0 0-.172-.932 3.353 3.353 0 0 0-.551-.865 3.26 3.26 0 0 0-.929-.665 3.313 3.313 0 0 0-1.342-.266 3.484 3.484 0 0 0-1.376.266c-.376.155-.715.38-.998.665a2.76 2.76 0 0 0-.585.865c-.134.293-.204.61-.206.931h6.159zM140.3 6.503h-7.585v20.581h4.579v-7.256h3.211a7.843 7.843 0 0 0 2.665-.44 6.642 6.642 0 0 0 2.255-1.255 5.687 5.687 0 0 0 1.572-2.102c.402-.92.6-1.914.581-2.916a7.76 7.76 0 0 0-.41-2.51 5.876 5.876 0 0 0-1.298-2.101 6.32 6.32 0 0 0-2.255-1.458 8.814 8.814 0 0 0-3.315-.543zm1.811 8.816a2.821 2.821 0 0 1-2.084.78l-2.733.033v-5.797h2.699a2.765 2.765 0 0 1 2.084.813 2.91 2.91 0 0 1 .786 2.103 2.863 2.863 0 0 1-.752 2.068zM153.951 13v14.085h-4.247V13.001h4.247zm17.129 12.422l.002-.001c.266-.181.462-.314.608-.398l-1.823-2.661a12.11 12.11 0 0 1-1.618.865 6.932 6.932 0 0 1-2.855.499 4.302 4.302 0 0 1-2.822-.865 2.784 2.784 0 0 1-1.066-2.029H172V20.1a11.077 11.077 0 0 0-.482-3.292 7.61 7.61 0 0 0-1.411-2.594 6.292 6.292 0 0 0-2.27-1.696 7.59 7.59 0 0 0-3.131-.599 8.036 8.036 0 0 0-3.2.632 7.514 7.514 0 0 0-2.374 1.663 6.615 6.615 0 0 0-1.48 2.394 8.569 8.569 0 0 0 .035 5.954c.731 1.838 2.249 3.28 4.163 3.957a9.788 9.788 0 0 0 3.372.566c1.514.01 3.014-.285 4.404-.865.459-.19.897-.424 1.307-.698l.147-.1zm-3.519-8.381c.104.3.162.614.172.931h-6.158c.002-.32.072-.638.206-.931.137-.321.335-.615.585-.865.283-.284.622-.51.998-.665.434-.18.903-.271 1.376-.266.462-.005.919.085 1.342.266.348.167.663.392.929.665.227.26.413.551.55.865zm-42.119-5.089l-3.149 9.7-3.472-9.7h-4.154l4.219 11.515 1.298 3.524.097.279-2.109 6.315h4.154l4.706-14.13 2.499-7.538-4.089.035zm-13.723-.031c.35 0 .7.024 1.048.069a3.7 3.7 0 0 1 .838.209v4.208a3.989 3.989 0 0 0-.664-.348 2.699 2.699 0 0 0-.908-.243 2.654 2.654 0 0 0-.524-.035 3.923 3.923 0 0 0-3.457 2.122 1.287 1.287 0 0 0-.175.382.264.264 0 0 0-.07.14 2.236 2.236 0 0 0-.139.452 1.22 1.22 0 0 0-.07.382 3.746 3.746 0 0 0-.035.626v7.2h-4.575V12.199h4.4l.175 1.878a6.38 6.38 0 0 1 1.572-1.46 4.528 4.528 0 0 1 2.584-.697zm40.108-1.087c1.173 0 2.124-.97 2.124-2.167 0-1.196-.951-2.167-2.124-2.167s-2.123.97-2.123 2.167c0 1.197.95 2.167 2.123 2.167z" clip-rule="evenodd"/>
</svg>
